<svg width="46" height="46" viewBox="0 0 46 46" fill="none" xmlns="http://www.w3.org/2000/svg">
<path fill-rule="evenodd" clip-rule="evenodd" d="M37.4219 23C37.4219 22.4477 36.9742 22 36.4219 22H9.58854C9.03625 22 8.58854 22.4477 8.58854 23C8.58854 23.5523 9.03625 24 9.58854 24H36.4219C36.9742 24 37.4219 23.5523 37.4219 23Z" fill="#1A1A1A"/>
<path fill-rule="evenodd" clip-rule="evenodd" d="M22.2981 8.8759C21.9076 9.26643 21.9076 9.89959 22.2981 10.2901L35.0077 22.9997L22.2981 35.7092C21.9076 36.0998 21.9076 36.7329 22.2981 37.1234C22.6886 37.514 23.3218 37.514 23.7123 37.1234L37.129 23.7068C37.5195 23.3163 37.5195 22.6831 37.129 22.2926L23.7123 8.8759C23.3218 8.48538 22.6886 8.48538 22.2981 8.8759Z" fill="#1A1A1A"/>
</svg>
