<svg width="38" height="38" viewBox="0 0 38 38" fill="none" xmlns="http://www.w3.org/2000/svg">
<path fill-rule="evenodd" clip-rule="evenodd" d="M6.91406 19C6.91406 18.4477 7.36178 18 7.91406 18H30.0807C30.633 18 31.0807 18.4477 31.0807 19C31.0807 19.5523 30.633 20 30.0807 20H7.91406C7.36178 20 6.91406 19.5523 6.91406 19Z" fill="black"/>
<path fill-rule="evenodd" clip-rule="evenodd" d="M19.7045 7.2094C20.095 7.59992 20.095 8.23309 19.7045 8.62361L9.32828 18.9998L19.7045 29.3761C20.095 29.7666 20.095 30.3998 19.7045 30.7903C19.314 31.1808 18.6808 31.1808 18.2903 30.7903L7.20696 19.7069C6.81643 19.3164 6.81643 18.6833 7.20696 18.2927L18.2903 7.2094C18.6808 6.81887 19.314 6.81887 19.7045 7.2094Z" fill="black"/>
</svg>
