<svg width="30" height="30" viewBox="0 0 30 30" fill="none" xmlns="http://www.w3.org/2000/svg">
<path fill-rule="evenodd" clip-rule="evenodd" d="M13.75 12.25C12.9216 12.25 12.25 12.9216 12.25 13.75V25C12.25 25.8284 12.9216 26.5 13.75 26.5H25C25.8284 26.5 26.5 25.8284 26.5 25V13.75C26.5 12.9216 25.8284 12.25 25 12.25H13.75ZM10.25 13.75C10.25 11.817 11.817 10.25 13.75 10.25H25C26.933 10.25 28.5 11.817 28.5 13.75V25C28.5 26.933 26.933 28.5 25 28.5H13.75C11.817 28.5 10.25 26.933 10.25 25V13.75Z" fill="#3C59F0"/>
<path fill-rule="evenodd" clip-rule="evenodd" d="M5 3.5C4.60217 3.5 4.22064 3.65804 3.93934 3.93934C3.65804 4.22064 3.5 4.60217 3.5 5V16.25C3.5 16.6478 3.65803 17.0294 3.93934 17.3107C4.22064 17.592 4.60218 17.75 5 17.75H6.25C6.80228 17.75 7.25 18.1977 7.25 18.75C7.25 19.3023 6.80228 19.75 6.25 19.75H5C4.07174 19.75 3.1815 19.3813 2.52513 18.7249C1.86875 18.0685 1.5 17.1783 1.5 16.25V5C1.5 4.07174 1.86875 3.1815 2.52513 2.52513C3.1815 1.86875 4.07174 1.5 5 1.5H16.25C17.1783 1.5 18.0685 1.86875 18.7249 2.52513C19.3813 3.1815 19.75 4.07174 19.75 5V6.25C19.75 6.80228 19.3023 7.25 18.75 7.25C18.1977 7.25 17.75 6.80228 17.75 6.25V5C17.75 4.60218 17.592 4.22064 17.3107 3.93934C17.0294 3.65803 16.6478 3.5 16.25 3.5H5Z" fill="#3C59F0"/>
</svg>
