<svg width="18" height="20" viewBox="0 0 18 20" fill="none" xmlns="http://www.w3.org/2000/svg">
<path d="M15.75 8.00681C15.75 13.6362 9 18.4614 9 18.4614C9 18.4614 2.25 13.6362 2.25 8.00681C2.25 6.08723 2.96116 4.24628 4.22703 2.88893C5.4929 1.53159 7.20979 0.769043 9 0.769043C10.7902 0.769043 12.5071 1.53159 13.773 2.88893C15.0388 4.24628 15.75 6.08723 15.75 8.00681Z" fill="white"/>
<path d="M9 10.0002C10.2426 10.0002 11.25 8.96696 11.25 7.69246C11.25 6.41795 10.2426 5.38477 9 5.38477C7.75736 5.38477 6.75 6.41795 6.75 7.69246C6.75 8.96696 7.75736 10.0002 9 10.0002Z" fill="#1A1A1A"/>
</svg>
